<mxfile host="65bd71144e">
    <diagram name="level" id="jEqFdlhptVr93eYA3EzU">
        <mxGraphModel dx="751" dy="1080" grid="1" gridSize="10" guides="1" tooltips="1" connect="1" arrows="1" fold="1" page="0" pageScale="1" pageWidth="850" pageHeight="1100" math="0" shadow="0">
            <root>
                <mxCell id="0"/>
                <mxCell id="1" parent="0"/>
                <mxCell id="pvzfJx7lh-S1m6IJ8Yne-1" value="" style="shape=trapezoid;perimeter=trapezoidPerimeter;whiteSpace=wrap;html=1;fixedSize=1;rotation=90;labelBackgroundColor=none;" parent="1" vertex="1">
                    <mxGeometry x="60" y="320" width="65" height="25" as="geometry"/>
                </mxCell>
                <mxCell id="12cuReVKj2bfx4aHEkNG-16" style="edgeStyle=orthogonalEdgeStyle;rounded=0;orthogonalLoop=1;jettySize=auto;html=1;exitX=0.75;exitY=1;exitDx=0;exitDy=0;entryX=0;entryY=0.5;entryDx=0;entryDy=0;" parent="1" source="12cuReVKj2bfx4aHEkNG-2" target="12cuReVKj2bfx4aHEkNG-15" edge="1">
                    <mxGeometry relative="1" as="geometry">
                        <Array as="points">
                            <mxPoint x="220" y="330"/>
                            <mxPoint x="220" y="360"/>
                        </Array>
                    </mxGeometry>
                </mxCell>
                <mxCell id="12cuReVKj2bfx4aHEkNG-85" style="edgeStyle=orthogonalEdgeStyle;rounded=0;orthogonalLoop=1;jettySize=auto;html=1;exitX=0.75;exitY=1;exitDx=0;exitDy=0;entryX=0;entryY=0.25;entryDx=0;entryDy=0;" parent="1" source="12cuReVKj2bfx4aHEkNG-2" target="12cuReVKj2bfx4aHEkNG-11" edge="1">
                    <mxGeometry relative="1" as="geometry">
                        <Array as="points">
                            <mxPoint x="220" y="330"/>
                            <mxPoint x="220" y="212"/>
                        </Array>
                    </mxGeometry>
                </mxCell>
                <mxCell id="6" value="current_pc" style="edgeLabel;html=1;align=center;verticalAlign=middle;resizable=0;points=[];" vertex="1" connectable="0" parent="12cuReVKj2bfx4aHEkNG-85">
                    <mxGeometry x="0.5744" y="-2" relative="1" as="geometry">
                        <mxPoint as="offset"/>
                    </mxGeometry>
                </mxCell>
                <mxCell id="12cuReVKj2bfx4aHEkNG-3" style="edgeStyle=orthogonalEdgeStyle;rounded=0;orthogonalLoop=1;jettySize=auto;html=1;exitX=0.5;exitY=0;exitDx=0;exitDy=0;entryX=0.724;entryY=-0.005;entryDx=0;entryDy=0;entryPerimeter=0;labelBackgroundColor=none;fontColor=default;" parent="1" source="pvzfJx7lh-S1m6IJ8Yne-1" target="12cuReVKj2bfx4aHEkNG-2" edge="1">
                    <mxGeometry relative="1" as="geometry"/>
                </mxCell>
                <mxCell id="12cuReVKj2bfx4aHEkNG-10" style="edgeStyle=orthogonalEdgeStyle;rounded=0;orthogonalLoop=1;jettySize=auto;html=1;exitX=1;exitY=0.5;exitDx=0;exitDy=0;entryX=0.25;entryY=1;entryDx=0;entryDy=0;labelBackgroundColor=none;fontColor=default;" parent="1" source="12cuReVKj2bfx4aHEkNG-8" target="pvzfJx7lh-S1m6IJ8Yne-1" edge="1">
                    <mxGeometry relative="1" as="geometry">
                        <Array as="points">
                            <mxPoint x="310" y="160"/>
                            <mxPoint x="310" y="110"/>
                            <mxPoint x="60" y="110"/>
                            <mxPoint x="60" y="316"/>
                        </Array>
                    </mxGeometry>
                </mxCell>
                <mxCell id="12cuReVKj2bfx4aHEkNG-45" value="next_pc" style="edgeLabel;html=1;align=center;verticalAlign=middle;resizable=0;points=[];" parent="12cuReVKj2bfx4aHEkNG-10" connectable="0" vertex="1">
                    <mxGeometry x="-0.1612" y="-1" relative="1" as="geometry">
                        <mxPoint as="offset"/>
                    </mxGeometry>
                </mxCell>
                <mxCell id="12cuReVKj2bfx4aHEkNG-8" value="&amp;nbsp; &amp;nbsp; +" style="shape=step;perimeter=stepPerimeter;whiteSpace=wrap;html=1;fixedSize=1;labelBackgroundColor=none;fillColor=#d0cee2;strokeColor=#56517e;" parent="1" vertex="1">
                    <mxGeometry x="250" y="120" width="50" height="80" as="geometry"/>
                </mxCell>
                <mxCell id="12cuReVKj2bfx4aHEkNG-9" style="edgeStyle=orthogonalEdgeStyle;rounded=0;orthogonalLoop=1;jettySize=auto;html=1;exitX=0.75;exitY=1;exitDx=0;exitDy=0;entryX=0.147;entryY=0.752;entryDx=0;entryDy=0;entryPerimeter=0;labelBackgroundColor=none;fontColor=default;" parent="1" source="12cuReVKj2bfx4aHEkNG-2" target="12cuReVKj2bfx4aHEkNG-8" edge="1">
                    <mxGeometry relative="1" as="geometry">
                        <Array as="points">
                            <mxPoint x="220" y="330"/>
                            <mxPoint x="220" y="180"/>
                        </Array>
                    </mxGeometry>
                </mxCell>
                <mxCell id="12cuReVKj2bfx4aHEkNG-11" value="IF/ID" style="rounded=0;whiteSpace=wrap;html=1;fillColor=#dae8fc;strokeColor=#6c8ebf;" parent="1" vertex="1">
                    <mxGeometry x="350" y="30" width="50" height="730" as="geometry"/>
                </mxCell>
                <mxCell id="12cuReVKj2bfx4aHEkNG-63" style="edgeStyle=orthogonalEdgeStyle;rounded=0;orthogonalLoop=1;jettySize=auto;html=1;exitX=1;exitY=0.82;exitDx=3;exitDy=0;exitPerimeter=0;entryX=0.719;entryY=0.987;entryDx=0;entryDy=0;entryPerimeter=0;" parent="1" source="12cuReVKj2bfx4aHEkNG-14" target="12cuReVKj2bfx4aHEkNG-62" edge="1">
                    <mxGeometry relative="1" as="geometry">
                        <Array as="points">
                            <mxPoint x="990" y="629"/>
                            <mxPoint x="990" y="540"/>
                        </Array>
                    </mxGeometry>
                </mxCell>
                <mxCell id="12cuReVKj2bfx4aHEkNG-82" value="imm_ex" style="edgeLabel;html=1;align=center;verticalAlign=middle;resizable=0;points=[];" parent="12cuReVKj2bfx4aHEkNG-63" connectable="0" vertex="1">
                    <mxGeometry x="0.7612" y="-1" relative="1" as="geometry">
                        <mxPoint x="-24" as="offset"/>
                    </mxGeometry>
                </mxCell>
                <mxCell id="12cuReVKj2bfx4aHEkNG-71" style="edgeStyle=orthogonalEdgeStyle;rounded=0;orthogonalLoop=1;jettySize=auto;html=1;exitX=0.983;exitY=0.612;exitDx=0;exitDy=0;exitPerimeter=0;entryX=0.148;entryY=1.022;entryDx=0;entryDy=0;entryPerimeter=0;" parent="1" source="12cuReVKj2bfx4aHEkNG-14" target="12cuReVKj2bfx4aHEkNG-62" edge="1">
                    <mxGeometry relative="1" as="geometry">
                        <Array as="points">
                            <mxPoint x="970" y="477"/>
                            <mxPoint x="1083" y="477"/>
                        </Array>
                    </mxGeometry>
                </mxCell>
                <mxCell id="12cuReVKj2bfx4aHEkNG-74" value="r2_val_ex" style="edgeLabel;html=1;align=center;verticalAlign=middle;resizable=0;points=[];" parent="12cuReVKj2bfx4aHEkNG-71" connectable="0" vertex="1">
                    <mxGeometry x="-0.2754" y="-1" relative="1" as="geometry">
                        <mxPoint x="45" y="-3" as="offset"/>
                    </mxGeometry>
                </mxCell>
                <mxCell id="12cuReVKj2bfx4aHEkNG-72" style="edgeStyle=orthogonalEdgeStyle;rounded=0;orthogonalLoop=1;jettySize=auto;html=1;exitX=0.998;exitY=0.548;exitDx=0;exitDy=0;exitPerimeter=0;entryX=0;entryY=0.25;entryDx=0;entryDy=0;" parent="1" source="12cuReVKj2bfx4aHEkNG-14" target="12cuReVKj2bfx4aHEkNG-66" edge="1">
                    <mxGeometry relative="1" as="geometry">
                        <Array as="points">
                            <mxPoint x="1167" y="430"/>
                            <mxPoint x="1177" y="429"/>
                        </Array>
                    </mxGeometry>
                </mxCell>
                <mxCell id="12cuReVKj2bfx4aHEkNG-77" value="r1_val_ex" style="edgeLabel;html=1;align=center;verticalAlign=middle;resizable=0;points=[];" parent="12cuReVKj2bfx4aHEkNG-72" connectable="0" vertex="1">
                    <mxGeometry x="0.4126" y="-2" relative="1" as="geometry">
                        <mxPoint x="-93" y="-2" as="offset"/>
                    </mxGeometry>
                </mxCell>
                <mxCell id="12cuReVKj2bfx4aHEkNG-87" style="edgeStyle=orthogonalEdgeStyle;rounded=0;orthogonalLoop=1;jettySize=auto;html=1;exitX=1;exitY=0.04;exitDx=0;exitDy=0;exitPerimeter=0;entryX=0.274;entryY=0.356;entryDx=0;entryDy=0;entryPerimeter=0;" parent="1" source="12cuReVKj2bfx4aHEkNG-14" target="12cuReVKj2bfx4aHEkNG-65" edge="1">
                    <mxGeometry relative="1" as="geometry"/>
                </mxCell>
                <mxCell id="12cuReVKj2bfx4aHEkNG-93" value="inst_addr_ex" style="edgeLabel;html=1;align=center;verticalAlign=middle;resizable=0;points=[];" parent="12cuReVKj2bfx4aHEkNG-87" connectable="0" vertex="1">
                    <mxGeometry x="-0.4192" relative="1" as="geometry">
                        <mxPoint x="-13" y="1" as="offset"/>
                    </mxGeometry>
                </mxCell>
                <mxCell id="12cuReVKj2bfx4aHEkNG-133" style="edgeStyle=orthogonalEdgeStyle;rounded=0;orthogonalLoop=1;jettySize=auto;html=1;exitX=1.032;exitY=0.232;exitDx=0;exitDy=0;exitPerimeter=0;entryX=0;entryY=0.5;entryDx=0;entryDy=0;" parent="1" source="12cuReVKj2bfx4aHEkNG-14" target="12cuReVKj2bfx4aHEkNG-62" edge="1">
                    <mxGeometry relative="1" as="geometry">
                        <Array as="points">
                            <mxPoint x="1095" y="199"/>
                        </Array>
                    </mxGeometry>
                </mxCell>
                <mxCell id="12cuReVKj2bfx4aHEkNG-139" value="alu_src_sel_ex" style="edgeLabel;html=1;align=center;verticalAlign=middle;resizable=0;points=[];" parent="12cuReVKj2bfx4aHEkNG-133" connectable="0" vertex="1">
                    <mxGeometry x="0.2368" y="2" relative="1" as="geometry">
                        <mxPoint as="offset"/>
                    </mxGeometry>
                </mxCell>
                <mxCell id="12cuReVKj2bfx4aHEkNG-14" value="ID/EX" style="rounded=0;whiteSpace=wrap;html=1;fillColor=#dae8fc;strokeColor=#6c8ebf;points=[[0,0,0,0,0],[0,0.25,0,0,0],[0,0.5,0,0,0],[0,0.75,0,0,0],[0,1,0,0,0],[0.25,0,0,0,0],[0.25,1,0,0,0],[0.5,0,0,0,0],[0.5,1,0,0,0],[0.75,0,0,0,0],[0.75,1,0,0,0],[1,0,0,0,0],[1,0.04,0,0,0],[1,0.08,0,0,0],[1,0.12,0,1,0],[1,0.16,0,0,0],[1,0.2,0,1,0],[1,0.25,0,0,0],[1,0.3,0,1,0],[1,0.36,0,1,0],[1,0.43,0,1,0],[1,0.5,0,0,0],[1,0.58,0,1,0],[1,0.64,0,1,0],[1,0.7,0,1,0],[1,0.75,0,0,0],[1,0.82,0,3,0],[1,0.88,0,3,0],[1,0.95,0,3,0],[1,1,0,0,0]];" parent="1" vertex="1">
                    <mxGeometry x="880" y="30" width="50" height="730" as="geometry"/>
                </mxCell>
                <mxCell id="12cuReVKj2bfx4aHEkNG-27" style="edgeStyle=orthogonalEdgeStyle;rounded=0;orthogonalLoop=1;jettySize=auto;html=1;exitX=1;exitY=0.5;exitDx=0;exitDy=0;entryX=0;entryY=0.5;entryDx=0;entryDy=0;" parent="1" source="12cuReVKj2bfx4aHEkNG-15" target="12cuReVKj2bfx4aHEkNG-26" edge="1">
                    <mxGeometry relative="1" as="geometry"/>
                </mxCell>
                <mxCell id="12cuReVKj2bfx4aHEkNG-31" value="inst_id" style="edgeLabel;html=1;align=center;verticalAlign=middle;resizable=0;points=[];" parent="12cuReVKj2bfx4aHEkNG-27" connectable="0" vertex="1">
                    <mxGeometry x="0.5919" y="2" relative="1" as="geometry">
                        <mxPoint x="-11" y="2" as="offset"/>
                    </mxGeometry>
                </mxCell>
                <mxCell id="12cuReVKj2bfx4aHEkNG-15" value="Inst_mem" style="rounded=1;whiteSpace=wrap;html=1;fillColor=#ffe6cc;strokeColor=#d79b00;" parent="1" vertex="1">
                    <mxGeometry x="240" y="296.5" width="90" height="127" as="geometry"/>
                </mxCell>
                <mxCell id="12cuReVKj2bfx4aHEkNG-22" value="register_file" style="rounded=0;whiteSpace=wrap;html=1;fillColor=#f8cecc;strokeColor=#b85450;" parent="1" vertex="1">
                    <mxGeometry x="600" y="390" width="120" height="170" as="geometry"/>
                </mxCell>
                <mxCell id="12cuReVKj2bfx4aHEkNG-23" value="op_decoder" style="rounded=0;whiteSpace=wrap;html=1;points=[[0,0,0,0,0],[0,0.25,0,0,0],[0,0.5,0,0,0],[0,0.75,0,0,0],[0,1,0,0,0],[0.25,0,0,0,0],[0.25,1,0,0,0],[0.5,0,0,0,0],[0.5,1,0,0,0],[0.75,0,0,0,0],[0.75,1,0,0,0],[1,0,0,0,0],[1,0.14,0,0,0],[1,0.25,0,0,0],[1,0.36,0,0,0],[1,0.47,0,0,0],[1,0.62,0,0,0],[1,0.72,0,0,0],[1,0.83,0,0,0],[1,1,0,0,0]];fillColor=#d5e8d4;strokeColor=#82b366;" parent="1" vertex="1">
                    <mxGeometry x="600" y="90" width="120" height="230" as="geometry"/>
                </mxCell>
                <mxCell id="12cuReVKj2bfx4aHEkNG-32" style="edgeStyle=orthogonalEdgeStyle;rounded=0;orthogonalLoop=1;jettySize=auto;html=1;exitX=0.5;exitY=1;exitDx=0;exitDy=0;entryX=0;entryY=0.25;entryDx=0;entryDy=0;" parent="1" source="12cuReVKj2bfx4aHEkNG-26" target="12cuReVKj2bfx4aHEkNG-22" edge="1">
                    <mxGeometry relative="1" as="geometry"/>
                </mxCell>
                <mxCell id="12cuReVKj2bfx4aHEkNG-33" value="re_1" style="edgeLabel;html=1;align=center;verticalAlign=middle;resizable=0;points=[];" parent="12cuReVKj2bfx4aHEkNG-32" connectable="0" vertex="1">
                    <mxGeometry x="0.6091" y="2" relative="1" as="geometry">
                        <mxPoint as="offset"/>
                    </mxGeometry>
                </mxCell>
                <mxCell id="12cuReVKj2bfx4aHEkNG-35" style="edgeStyle=orthogonalEdgeStyle;rounded=0;orthogonalLoop=1;jettySize=auto;html=1;exitX=0.5;exitY=0;exitDx=0;exitDy=0;entryX=0;entryY=0.5;entryDx=0;entryDy=0;" parent="1" source="12cuReVKj2bfx4aHEkNG-26" target="12cuReVKj2bfx4aHEkNG-23" edge="1">
                    <mxGeometry relative="1" as="geometry"/>
                </mxCell>
                <mxCell id="12cuReVKj2bfx4aHEkNG-36" value="op_code" style="edgeLabel;html=1;align=center;verticalAlign=middle;resizable=0;points=[];" parent="12cuReVKj2bfx4aHEkNG-35" connectable="0" vertex="1">
                    <mxGeometry x="0.7593" y="-1" relative="1" as="geometry">
                        <mxPoint x="-15" y="-1" as="offset"/>
                    </mxGeometry>
                </mxCell>
                <mxCell id="12cuReVKj2bfx4aHEkNG-38" style="edgeStyle=orthogonalEdgeStyle;rounded=0;orthogonalLoop=1;jettySize=auto;html=1;exitX=0.5;exitY=1;exitDx=0;exitDy=0;entryX=0;entryY=0.5;entryDx=0;entryDy=0;" parent="1" source="12cuReVKj2bfx4aHEkNG-26" target="12cuReVKj2bfx4aHEkNG-37" edge="1">
                    <mxGeometry relative="1" as="geometry"/>
                </mxCell>
                <mxCell id="12cuReVKj2bfx4aHEkNG-39" value="immediate" style="edgeLabel;html=1;align=center;verticalAlign=middle;resizable=0;points=[];" parent="12cuReVKj2bfx4aHEkNG-38" connectable="0" vertex="1">
                    <mxGeometry x="0.7417" y="-9" relative="1" as="geometry">
                        <mxPoint as="offset"/>
                    </mxGeometry>
                </mxCell>
                <mxCell id="12cuReVKj2bfx4aHEkNG-26" value="Instruction" style="ellipse;whiteSpace=wrap;html=1;fillColor=#f5f5f5;fontColor=#333333;strokeColor=#666666;" parent="1" vertex="1">
                    <mxGeometry x="470" y="320" width="80" height="80" as="geometry"/>
                </mxCell>
                <mxCell id="12cuReVKj2bfx4aHEkNG-29" style="edgeStyle=orthogonalEdgeStyle;rounded=0;orthogonalLoop=1;jettySize=auto;html=1;exitX=0.5;exitY=1;exitDx=0;exitDy=0;entryX=-0.017;entryY=0.382;entryDx=0;entryDy=0;entryPerimeter=0;" parent="1" source="12cuReVKj2bfx4aHEkNG-26" target="12cuReVKj2bfx4aHEkNG-22" edge="1">
                    <mxGeometry relative="1" as="geometry"/>
                </mxCell>
                <mxCell id="12cuReVKj2bfx4aHEkNG-34" value="re_2" style="edgeLabel;html=1;align=center;verticalAlign=middle;resizable=0;points=[];" parent="12cuReVKj2bfx4aHEkNG-29" connectable="0" vertex="1">
                    <mxGeometry x="0.6601" relative="1" as="geometry">
                        <mxPoint as="offset"/>
                    </mxGeometry>
                </mxCell>
                <mxCell id="12cuReVKj2bfx4aHEkNG-37" value="sign_extend" style="rounded=0;whiteSpace=wrap;html=1;fillColor=#d5e8d4;strokeColor=#82b366;" parent="1" vertex="1">
                    <mxGeometry x="600" y="600" width="120" height="60" as="geometry"/>
                </mxCell>
                <mxCell id="12cuReVKj2bfx4aHEkNG-42" value="data_sel" style="shape=trapezoid;perimeter=trapezoidPerimeter;whiteSpace=wrap;html=1;fixedSize=1;rotation=90;labelBackgroundColor=none;" parent="1" vertex="1">
                    <mxGeometry x="1880" y="440.03" width="160" height="25" as="geometry"/>
                </mxCell>
                <mxCell id="12cuReVKj2bfx4aHEkNG-46" style="edgeStyle=orthogonalEdgeStyle;rounded=0;orthogonalLoop=1;jettySize=auto;html=1;exitX=1;exitY=0.14;exitDx=0;exitDy=0;exitPerimeter=0;entryX=0.018;entryY=0.126;entryDx=0;entryDy=0;entryPerimeter=0;" parent="1" source="12cuReVKj2bfx4aHEkNG-23" target="12cuReVKj2bfx4aHEkNG-14" edge="1">
                    <mxGeometry relative="1" as="geometry"/>
                </mxCell>
                <mxCell id="12cuReVKj2bfx4aHEkNG-53" value="jump_flag_de" style="edgeLabel;html=1;align=center;verticalAlign=middle;resizable=0;points=[];" parent="12cuReVKj2bfx4aHEkNG-46" connectable="0" vertex="1">
                    <mxGeometry x="-0.3649" relative="1" as="geometry">
                        <mxPoint x="29" y="-2" as="offset"/>
                    </mxGeometry>
                </mxCell>
                <mxCell id="12cuReVKj2bfx4aHEkNG-48" style="edgeStyle=orthogonalEdgeStyle;rounded=0;orthogonalLoop=1;jettySize=auto;html=1;exitX=1;exitY=0.36;exitDx=0;exitDy=0;exitPerimeter=0;entryX=0;entryY=0.196;entryDx=0;entryDy=0;entryPerimeter=0;" parent="1" source="12cuReVKj2bfx4aHEkNG-23" target="12cuReVKj2bfx4aHEkNG-14" edge="1">
                    <mxGeometry relative="1" as="geometry"/>
                </mxCell>
                <mxCell id="12cuReVKj2bfx4aHEkNG-112" value="alu_ctl_de" style="edgeLabel;html=1;align=center;verticalAlign=middle;resizable=0;points=[];" parent="12cuReVKj2bfx4aHEkNG-48" connectable="0" vertex="1">
                    <mxGeometry x="-0.0628" relative="1" as="geometry">
                        <mxPoint x="5" as="offset"/>
                    </mxGeometry>
                </mxCell>
                <mxCell id="12cuReVKj2bfx4aHEkNG-49" style="edgeStyle=orthogonalEdgeStyle;rounded=0;orthogonalLoop=1;jettySize=auto;html=1;exitX=1;exitY=0.25;exitDx=0;exitDy=0;exitPerimeter=0;entryX=0.007;entryY=0.161;entryDx=0;entryDy=0;entryPerimeter=0;" parent="1" source="12cuReVKj2bfx4aHEkNG-23" target="12cuReVKj2bfx4aHEkNG-14" edge="1">
                    <mxGeometry relative="1" as="geometry">
                        <Array as="points">
                            <mxPoint x="800" y="148"/>
                            <mxPoint x="800" y="148"/>
                        </Array>
                    </mxGeometry>
                </mxCell>
                <mxCell id="12cuReVKj2bfx4aHEkNG-102" value="re_we_de" style="edgeLabel;html=1;align=center;verticalAlign=middle;resizable=0;points=[];" parent="12cuReVKj2bfx4aHEkNG-49" connectable="0" vertex="1">
                    <mxGeometry x="-0.2267" y="2" relative="1" as="geometry">
                        <mxPoint x="18" as="offset"/>
                    </mxGeometry>
                </mxCell>
                <mxCell id="12cuReVKj2bfx4aHEkNG-50" style="edgeStyle=orthogonalEdgeStyle;rounded=0;orthogonalLoop=1;jettySize=auto;html=1;exitX=1;exitY=0.47;exitDx=0;exitDy=0;exitPerimeter=0;entryX=-0.023;entryY=0.23;entryDx=0;entryDy=0;entryPerimeter=0;" parent="1" source="12cuReVKj2bfx4aHEkNG-23" target="12cuReVKj2bfx4aHEkNG-14" edge="1">
                    <mxGeometry relative="1" as="geometry"/>
                </mxCell>
                <mxCell id="12cuReVKj2bfx4aHEkNG-113" value="alu_src_sel_de" style="edgeLabel;html=1;align=center;verticalAlign=middle;resizable=0;points=[];" parent="12cuReVKj2bfx4aHEkNG-50" connectable="0" vertex="1">
                    <mxGeometry x="0.0097" relative="1" as="geometry">
                        <mxPoint as="offset"/>
                    </mxGeometry>
                </mxCell>
                <mxCell id="12cuReVKj2bfx4aHEkNG-51" style="edgeStyle=orthogonalEdgeStyle;rounded=0;orthogonalLoop=1;jettySize=auto;html=1;exitX=1;exitY=0.62;exitDx=0;exitDy=0;exitPerimeter=0;entryX=-0.014;entryY=0.277;entryDx=0;entryDy=0;entryPerimeter=0;" parent="1" source="12cuReVKj2bfx4aHEkNG-23" target="12cuReVKj2bfx4aHEkNG-14" edge="1">
                    <mxGeometry relative="1" as="geometry"/>
                </mxCell>
                <mxCell id="12cuReVKj2bfx4aHEkNG-52" style="edgeStyle=orthogonalEdgeStyle;rounded=0;orthogonalLoop=1;jettySize=auto;html=1;exitX=1;exitY=0.72;exitDx=0;exitDy=0;exitPerimeter=0;entryX=0;entryY=0.309;entryDx=0;entryDy=0;entryPerimeter=0;" parent="1" source="12cuReVKj2bfx4aHEkNG-23" target="12cuReVKj2bfx4aHEkNG-14" edge="1">
                    <mxGeometry relative="1" as="geometry"/>
                </mxCell>
                <mxCell id="12cuReVKj2bfx4aHEkNG-60" style="edgeStyle=orthogonalEdgeStyle;rounded=0;orthogonalLoop=1;jettySize=auto;html=1;entryX=0.017;entryY=0.821;entryDx=0;entryDy=0;entryPerimeter=0;" parent="1" source="12cuReVKj2bfx4aHEkNG-37" target="12cuReVKj2bfx4aHEkNG-14" edge="1">
                    <mxGeometry relative="1" as="geometry"/>
                </mxCell>
                <mxCell id="12cuReVKj2bfx4aHEkNG-61" value="imm_id" style="edgeLabel;html=1;align=center;verticalAlign=middle;resizable=0;points=[];" parent="12cuReVKj2bfx4aHEkNG-60" connectable="0" vertex="1">
                    <mxGeometry x="0.6607" y="-1" relative="1" as="geometry">
                        <mxPoint x="-54" as="offset"/>
                    </mxGeometry>
                </mxCell>
                <mxCell id="12cuReVKj2bfx4aHEkNG-62" value="alu_src_mux" style="shape=trapezoid;perimeter=trapezoidPerimeter;whiteSpace=wrap;html=1;fixedSize=1;rotation=90;labelBackgroundColor=none;" parent="1" vertex="1">
                    <mxGeometry x="1040.04" y="503.53" width="110" height="25" as="geometry"/>
                </mxCell>
                <mxCell id="12cuReVKj2bfx4aHEkNG-65" value="&amp;nbsp; &amp;nbsp; &amp;nbsp;+" style="shape=step;perimeter=stepPerimeter;whiteSpace=wrap;html=1;fixedSize=1;labelBackgroundColor=none;fillColor=#d0cee2;strokeColor=#56517e;" parent="1" vertex="1">
                    <mxGeometry x="1190" y="30" width="50" height="80" as="geometry"/>
                </mxCell>
                <mxCell id="12cuReVKj2bfx4aHEkNG-66" value="alu" style="shape=step;perimeter=stepPerimeter;whiteSpace=wrap;html=1;fixedSize=1;labelBackgroundColor=none;fillColor=#d0cee2;strokeColor=#56517e;" parent="1" vertex="1">
                    <mxGeometry x="1165.04" y="360" width="120" height="230" as="geometry"/>
                </mxCell>
                <mxCell id="12cuReVKj2bfx4aHEkNG-69" style="edgeStyle=orthogonalEdgeStyle;rounded=0;orthogonalLoop=1;jettySize=auto;html=1;exitX=1;exitY=0.5;exitDx=0;exitDy=0;entryX=1.015;entryY=0.611;entryDx=0;entryDy=0;entryPerimeter=0;" parent="1" source="12cuReVKj2bfx4aHEkNG-22" target="12cuReVKj2bfx4aHEkNG-14" edge="1">
                    <mxGeometry relative="1" as="geometry">
                        <Array as="points">
                            <mxPoint x="720" y="476"/>
                        </Array>
                    </mxGeometry>
                </mxCell>
                <mxCell id="12cuReVKj2bfx4aHEkNG-75" value="r2_val_id" style="edgeLabel;html=1;align=center;verticalAlign=middle;resizable=0;points=[];" parent="12cuReVKj2bfx4aHEkNG-69" connectable="0" vertex="1">
                    <mxGeometry x="0.4199" relative="1" as="geometry">
                        <mxPoint x="-39" y="-1" as="offset"/>
                    </mxGeometry>
                </mxCell>
                <mxCell id="12cuReVKj2bfx4aHEkNG-70" style="edgeStyle=orthogonalEdgeStyle;rounded=0;orthogonalLoop=1;jettySize=auto;html=1;exitX=0.993;exitY=0.228;exitDx=0;exitDy=0;entryX=0.992;entryY=0.548;entryDx=0;entryDy=0;entryPerimeter=0;exitPerimeter=0;" parent="1" source="12cuReVKj2bfx4aHEkNG-22" target="12cuReVKj2bfx4aHEkNG-14" edge="1">
                    <mxGeometry relative="1" as="geometry">
                        <Array as="points">
                            <mxPoint x="719" y="430"/>
                        </Array>
                    </mxGeometry>
                </mxCell>
                <mxCell id="12cuReVKj2bfx4aHEkNG-76" value="r1_val_id" style="edgeLabel;html=1;align=center;verticalAlign=middle;resizable=0;points=[];" parent="12cuReVKj2bfx4aHEkNG-70" connectable="0" vertex="1">
                    <mxGeometry x="0.5239" y="-2" relative="1" as="geometry">
                        <mxPoint x="-49" y="-4" as="offset"/>
                    </mxGeometry>
                </mxCell>
                <mxCell id="12cuReVKj2bfx4aHEkNG-80" style="edgeStyle=orthogonalEdgeStyle;rounded=0;orthogonalLoop=1;jettySize=auto;html=1;exitX=0.5;exitY=0;exitDx=0;exitDy=0;entryX=0.101;entryY=0.684;entryDx=0;entryDy=0;entryPerimeter=0;" parent="1" source="12cuReVKj2bfx4aHEkNG-62" target="12cuReVKj2bfx4aHEkNG-66" edge="1">
                    <mxGeometry relative="1" as="geometry"/>
                </mxCell>
                <mxCell id="12cuReVKj2bfx4aHEkNG-83" value="alu_src_2" style="edgeLabel;html=1;align=center;verticalAlign=middle;resizable=0;points=[];" parent="12cuReVKj2bfx4aHEkNG-80" connectable="0" vertex="1">
                    <mxGeometry x="-0.1896" y="-1" relative="1" as="geometry">
                        <mxPoint x="-1" as="offset"/>
                    </mxGeometry>
                </mxCell>
                <mxCell id="12cuReVKj2bfx4aHEkNG-86" style="edgeStyle=orthogonalEdgeStyle;rounded=0;orthogonalLoop=1;jettySize=auto;html=1;exitX=1;exitY=0.25;exitDx=0;exitDy=0;entryX=-0.073;entryY=0.042;entryDx=0;entryDy=0;entryPerimeter=0;" parent="1" source="12cuReVKj2bfx4aHEkNG-11" target="12cuReVKj2bfx4aHEkNG-14" edge="1">
                    <mxGeometry relative="1" as="geometry">
                        <Array as="points">
                            <mxPoint x="440" y="213"/>
                            <mxPoint x="440" y="61"/>
                        </Array>
                    </mxGeometry>
                </mxCell>
                <mxCell id="12cuReVKj2bfx4aHEkNG-92" value="inst_addr_de" style="edgeLabel;html=1;align=center;verticalAlign=middle;resizable=0;points=[];" parent="12cuReVKj2bfx4aHEkNG-86" connectable="0" vertex="1">
                    <mxGeometry x="0.1994" relative="1" as="geometry">
                        <mxPoint as="offset"/>
                    </mxGeometry>
                </mxCell>
                <mxCell id="12cuReVKj2bfx4aHEkNG-99" style="edgeStyle=orthogonalEdgeStyle;rounded=0;orthogonalLoop=1;jettySize=auto;html=1;entryX=0.75;entryY=1;entryDx=0;entryDy=0;exitX=0.991;exitY=0.056;exitDx=0;exitDy=0;exitPerimeter=0;" parent="1" source="12cuReVKj2bfx4aHEkNG-94" target="pvzfJx7lh-S1m6IJ8Yne-1" edge="1">
                    <mxGeometry relative="1" as="geometry">
                        <mxPoint x="1431" y="80" as="sourcePoint"/>
                        <Array as="points">
                            <mxPoint x="1450" y="71"/>
                            <mxPoint x="1450" y="10"/>
                            <mxPoint x="40" y="10"/>
                            <mxPoint x="40" y="349"/>
                        </Array>
                    </mxGeometry>
                </mxCell>
                <mxCell id="12cuReVKj2bfx4aHEkNG-153" value="jump_addr_ma" style="edgeLabel;html=1;align=center;verticalAlign=middle;resizable=0;points=[];" parent="12cuReVKj2bfx4aHEkNG-99" connectable="0" vertex="1">
                    <mxGeometry x="-0.3631" relative="1" as="geometry">
                        <mxPoint as="offset"/>
                    </mxGeometry>
                </mxCell>
                <mxCell id="12cuReVKj2bfx4aHEkNG-104" style="edgeStyle=orthogonalEdgeStyle;rounded=0;orthogonalLoop=1;jettySize=auto;html=1;exitX=1;exitY=0.16;exitDx=0;exitDy=0;exitPerimeter=0;entryX=0.25;entryY=0;entryDx=0;entryDy=0;" parent="1" source="12cuReVKj2bfx4aHEkNG-94" target="12cuReVKj2bfx4aHEkNG-101" edge="1">
                    <mxGeometry relative="1" as="geometry">
                        <Array as="points">
                            <mxPoint x="1553" y="147"/>
                        </Array>
                    </mxGeometry>
                </mxCell>
                <mxCell id="12cuReVKj2bfx4aHEkNG-146" value="we" style="edgeLabel;html=1;align=center;verticalAlign=middle;resizable=0;points=[];" parent="12cuReVKj2bfx4aHEkNG-104" connectable="0" vertex="1">
                    <mxGeometry x="0.791" y="-1" relative="1" as="geometry">
                        <mxPoint as="offset"/>
                    </mxGeometry>
                </mxCell>
                <mxCell id="12cuReVKj2bfx4aHEkNG-151" style="edgeStyle=orthogonalEdgeStyle;rounded=0;orthogonalLoop=1;jettySize=auto;html=1;exitX=1.029;exitY=0.129;exitDx=0;exitDy=0;exitPerimeter=0;entryX=0;entryY=0.5;entryDx=0;entryDy=0;" parent="1" source="12cuReVKj2bfx4aHEkNG-94" target="pvzfJx7lh-S1m6IJ8Yne-1" edge="1">
                    <mxGeometry relative="1" as="geometry">
                        <Array as="points">
                            <mxPoint x="1460" y="124"/>
                            <mxPoint x="1460"/>
                            <mxPoint x="93"/>
                        </Array>
                    </mxGeometry>
                </mxCell>
                <mxCell id="12cuReVKj2bfx4aHEkNG-154" value="jump_flag_ma" style="edgeLabel;html=1;align=center;verticalAlign=middle;resizable=0;points=[];" parent="12cuReVKj2bfx4aHEkNG-151" connectable="0" vertex="1">
                    <mxGeometry x="-0.3898" y="-1" relative="1" as="geometry">
                        <mxPoint as="offset"/>
                    </mxGeometry>
                </mxCell>
                <mxCell id="12cuReVKj2bfx4aHEkNG-94" value="EX/MA" style="rounded=0;whiteSpace=wrap;html=1;fillColor=#dae8fc;strokeColor=#6c8ebf;points=[[0,0,0,0,0],[0,0.25,0,0,0],[0,0.5,0,0,0],[0,0.75,0,0,0],[0,1,0,0,0],[0.25,0,0,0,0],[0.25,1,0,0,0],[0.5,0,0,0,0],[0.5,1,0,0,0],[0.75,0,0,0,0],[0.75,1,0,0,0],[1,0,0,0,0],[1,0.04,0,0,0],[1,0.08,0,0,0],[1,0.12,0,1,0],[1,0.16,0,0,0],[1,0.2,0,1,0],[1,0.25,0,0,0],[1,0.3,0,1,0],[1,0.36,0,1,0],[1,0.43,0,1,0],[1,0.5,0,0,0],[1,0.58,0,1,0],[1,0.64,0,1,0],[1,0.7,0,1,0],[1,0.75,0,0,0],[1,0.82,0,3,0],[1,0.88,0,3,0],[1,0.95,0,3,0],[1,1,0,0,0]];" parent="1" vertex="1">
                    <mxGeometry x="1380" y="30" width="50" height="730" as="geometry"/>
                </mxCell>
                <mxCell id="12cuReVKj2bfx4aHEkNG-118" style="edgeStyle=orthogonalEdgeStyle;rounded=0;orthogonalLoop=1;jettySize=auto;html=1;exitX=1;exitY=0.88;exitDx=3;exitDy=0;exitPerimeter=0;entryX=0;entryY=0.75;entryDx=0;entryDy=0;" parent="1" source="12cuReVKj2bfx4aHEkNG-95" target="12cuReVKj2bfx4aHEkNG-22" edge="1">
                    <mxGeometry relative="1" as="geometry">
                        <Array as="points">
                            <mxPoint x="1900" y="672"/>
                            <mxPoint x="1900" y="780"/>
                            <mxPoint x="480" y="780"/>
                            <mxPoint x="480" y="517"/>
                        </Array>
                    </mxGeometry>
                </mxCell>
                <mxCell id="12cuReVKj2bfx4aHEkNG-127" value="dst_reg_ma" style="edgeLabel;html=1;align=center;verticalAlign=middle;resizable=0;points=[];" parent="12cuReVKj2bfx4aHEkNG-118" connectable="0" vertex="1">
                    <mxGeometry x="-0.1532" y="3" relative="1" as="geometry">
                        <mxPoint as="offset"/>
                    </mxGeometry>
                </mxCell>
                <mxCell id="12cuReVKj2bfx4aHEkNG-121" style="edgeStyle=orthogonalEdgeStyle;rounded=0;orthogonalLoop=1;jettySize=auto;html=1;exitX=1;exitY=0.64;exitDx=1;exitDy=0;exitPerimeter=0;entryX=0.781;entryY=0.985;entryDx=0;entryDy=0;entryPerimeter=0;" parent="1" source="12cuReVKj2bfx4aHEkNG-95" target="12cuReVKj2bfx4aHEkNG-42" edge="1">
                    <mxGeometry relative="1" as="geometry"/>
                </mxCell>
                <mxCell id="12cuReVKj2bfx4aHEkNG-95" value="MA/WB" style="rounded=0;whiteSpace=wrap;html=1;fillColor=#dae8fc;strokeColor=#6c8ebf;points=[[0,0,0,0,0],[0,0.25,0,0,0],[0,0.5,0,0,0],[0,0.75,0,0,0],[0,1,0,0,0],[0.25,0,0,0,0],[0.25,1,0,0,0],[0.5,0,0,0,0],[0.5,1,0,0,0],[0.75,0,0,0,0],[0.75,1,0,0,0],[1,0,0,0,0],[1,0.04,0,0,0],[1,0.08,0,0,0],[1,0.12,0,1,0],[1,0.16,0,0,0],[1,0.2,0,1,0],[1,0.25,0,0,0],[1,0.3,0,1,0],[1,0.32,0,1,0],[1,0.34,0,1,0],[1,0.36,0,1,0],[1,0.38,0,1,0],[1,0.41,0,1,0],[1,0.43,0,1,0],[1,0.46,0,3,0],[1,0.48,0,3,0],[1,0.5,0,0,0],[1,0.58,0,1,0],[1,0.64,0,1,0],[1,0.7,0,1,0],[1,0.75,0,0,0],[1,0.82,0,3,0],[1,0.88,0,3,0],[1,0.95,0,3,0],[1,1,0,0,0]];" parent="1" vertex="1">
                    <mxGeometry x="1820" y="30" width="50" height="730" as="geometry"/>
                </mxCell>
                <mxCell id="12cuReVKj2bfx4aHEkNG-96" style="edgeStyle=orthogonalEdgeStyle;rounded=0;orthogonalLoop=1;jettySize=auto;html=1;exitX=1;exitY=0.5;exitDx=0;exitDy=0;entryX=0.078;entryY=0.056;entryDx=0;entryDy=0;entryPerimeter=0;" parent="1" source="12cuReVKj2bfx4aHEkNG-65" target="12cuReVKj2bfx4aHEkNG-94" edge="1">
                    <mxGeometry relative="1" as="geometry"/>
                </mxCell>
                <mxCell id="12cuReVKj2bfx4aHEkNG-152" value="jump_addr_ex" style="edgeLabel;html=1;align=center;verticalAlign=middle;resizable=0;points=[];" parent="12cuReVKj2bfx4aHEkNG-96" connectable="0" vertex="1">
                    <mxGeometry x="-0.102" relative="1" as="geometry">
                        <mxPoint as="offset"/>
                    </mxGeometry>
                </mxCell>
                <mxCell id="12cuReVKj2bfx4aHEkNG-97" style="edgeStyle=orthogonalEdgeStyle;rounded=0;orthogonalLoop=1;jettySize=auto;html=1;exitX=1;exitY=0.82;exitDx=3;exitDy=0;exitPerimeter=0;entryX=0.265;entryY=0.694;entryDx=0;entryDy=0;entryPerimeter=0;" parent="1" source="12cuReVKj2bfx4aHEkNG-14" target="12cuReVKj2bfx4aHEkNG-65" edge="1">
                    <mxGeometry relative="1" as="geometry">
                        <Array as="points">
                            <mxPoint x="990" y="629"/>
                            <mxPoint x="990" y="86"/>
                            <mxPoint x="1203" y="86"/>
                        </Array>
                    </mxGeometry>
                </mxCell>
                <mxCell id="12cuReVKj2bfx4aHEkNG-98" value="imm_ex" style="edgeLabel;html=1;align=center;verticalAlign=middle;resizable=0;points=[];" parent="12cuReVKj2bfx4aHEkNG-97" connectable="0" vertex="1">
                    <mxGeometry x="0.6757" y="1" relative="1" as="geometry">
                        <mxPoint x="-1" as="offset"/>
                    </mxGeometry>
                </mxCell>
                <mxCell id="12cuReVKj2bfx4aHEkNG-100" style="edgeStyle=orthogonalEdgeStyle;rounded=0;orthogonalLoop=1;jettySize=auto;html=1;exitX=1;exitY=0.5;exitDx=0;exitDy=0;entryX=0.065;entryY=0.609;entryDx=0;entryDy=0;entryPerimeter=0;" parent="1" source="12cuReVKj2bfx4aHEkNG-66" target="12cuReVKj2bfx4aHEkNG-94" edge="1">
                    <mxGeometry relative="1" as="geometry"/>
                </mxCell>
                <mxCell id="12cuReVKj2bfx4aHEkNG-130" value="alu_out" style="edgeLabel;html=1;align=center;verticalAlign=middle;resizable=0;points=[];" parent="12cuReVKj2bfx4aHEkNG-100" connectable="0" vertex="1">
                    <mxGeometry x="-0.0704" y="2" relative="1" as="geometry">
                        <mxPoint as="offset"/>
                    </mxGeometry>
                </mxCell>
                <mxCell id="12cuReVKj2bfx4aHEkNG-122" style="edgeStyle=orthogonalEdgeStyle;rounded=0;orthogonalLoop=1;jettySize=auto;html=1;exitX=0.995;exitY=0.296;exitDx=0;exitDy=0;entryX=0.25;entryY=1;entryDx=0;entryDy=0;exitPerimeter=0;" parent="1" source="12cuReVKj2bfx4aHEkNG-101" target="12cuReVKj2bfx4aHEkNG-42" edge="1">
                    <mxGeometry relative="1" as="geometry">
                        <Array as="points">
                            <mxPoint x="1649" y="413"/>
                        </Array>
                    </mxGeometry>
                </mxCell>
                <mxCell id="12cuReVKj2bfx4aHEkNG-124" value="load_val" style="edgeLabel;html=1;align=center;verticalAlign=middle;resizable=0;points=[];" parent="12cuReVKj2bfx4aHEkNG-122" connectable="0" vertex="1">
                    <mxGeometry x="-0.2749" y="-1" relative="1" as="geometry">
                        <mxPoint x="2" y="-4" as="offset"/>
                    </mxGeometry>
                </mxCell>
                <mxCell id="12cuReVKj2bfx4aHEkNG-103" style="edgeStyle=orthogonalEdgeStyle;rounded=0;orthogonalLoop=1;jettySize=auto;html=1;exitX=1;exitY=0.16;exitDx=0;exitDy=0;exitPerimeter=0;entryX=0.067;entryY=0.16;entryDx=0;entryDy=0;entryPerimeter=0;" parent="1" source="12cuReVKj2bfx4aHEkNG-14" target="12cuReVKj2bfx4aHEkNG-94" edge="1">
                    <mxGeometry relative="1" as="geometry"/>
                </mxCell>
                <mxCell id="12cuReVKj2bfx4aHEkNG-142" value="Text" style="edgeLabel;html=1;align=center;verticalAlign=middle;resizable=0;points=[];" parent="12cuReVKj2bfx4aHEkNG-103" connectable="0" vertex="1">
                    <mxGeometry x="-0.0025" relative="1" as="geometry">
                        <mxPoint as="offset"/>
                    </mxGeometry>
                </mxCell>
                <mxCell id="12cuReVKj2bfx4aHEkNG-149" value="re_we_ex" style="edgeLabel;html=1;align=center;verticalAlign=middle;resizable=0;points=[];" parent="12cuReVKj2bfx4aHEkNG-103" connectable="0" vertex="1">
                    <mxGeometry x="0.0024" y="-1" relative="1" as="geometry">
                        <mxPoint as="offset"/>
                    </mxGeometry>
                </mxCell>
                <mxCell id="12cuReVKj2bfx4aHEkNG-105" style="edgeStyle=orthogonalEdgeStyle;rounded=0;orthogonalLoop=1;jettySize=auto;html=1;exitX=0.998;exitY=0.607;exitDx=0;exitDy=0;exitPerimeter=0;entryX=0.007;entryY=0.652;entryDx=0;entryDy=0;entryPerimeter=0;" parent="1" source="12cuReVKj2bfx4aHEkNG-94" target="12cuReVKj2bfx4aHEkNG-101" edge="1">
                    <mxGeometry relative="1" as="geometry">
                        <Array as="points">
                            <mxPoint x="1450" y="473"/>
                            <mxPoint x="1450" y="473"/>
                        </Array>
                    </mxGeometry>
                </mxCell>
                <mxCell id="12cuReVKj2bfx4aHEkNG-114" style="edgeStyle=orthogonalEdgeStyle;rounded=0;orthogonalLoop=1;jettySize=auto;html=1;exitX=0.5;exitY=1;exitDx=0;exitDy=0;entryX=-0.028;entryY=0.881;entryDx=0;entryDy=0;entryPerimeter=0;" parent="1" source="12cuReVKj2bfx4aHEkNG-26" target="12cuReVKj2bfx4aHEkNG-14" edge="1">
                    <mxGeometry relative="1" as="geometry"/>
                </mxCell>
                <mxCell id="12cuReVKj2bfx4aHEkNG-115" value="dst_reg_de" style="edgeLabel;html=1;align=center;verticalAlign=middle;resizable=0;points=[];" parent="12cuReVKj2bfx4aHEkNG-114" connectable="0" vertex="1">
                    <mxGeometry x="0.5775" relative="1" as="geometry">
                        <mxPoint as="offset"/>
                    </mxGeometry>
                </mxCell>
                <mxCell id="12cuReVKj2bfx4aHEkNG-116" style="edgeStyle=orthogonalEdgeStyle;rounded=0;orthogonalLoop=1;jettySize=auto;html=1;exitX=1;exitY=0.88;exitDx=3;exitDy=0;exitPerimeter=0;entryX=-0.036;entryY=0.879;entryDx=0;entryDy=0;entryPerimeter=0;" parent="1" source="12cuReVKj2bfx4aHEkNG-14" target="12cuReVKj2bfx4aHEkNG-94" edge="1">
                    <mxGeometry relative="1" as="geometry"/>
                </mxCell>
                <mxCell id="12cuReVKj2bfx4aHEkNG-125" value="dst_reg_ex" style="edgeLabel;html=1;align=center;verticalAlign=middle;resizable=0;points=[];" parent="12cuReVKj2bfx4aHEkNG-116" connectable="0" vertex="1">
                    <mxGeometry x="0.0124" relative="1" as="geometry">
                        <mxPoint as="offset"/>
                    </mxGeometry>
                </mxCell>
                <mxCell id="12cuReVKj2bfx4aHEkNG-117" style="edgeStyle=orthogonalEdgeStyle;rounded=0;orthogonalLoop=1;jettySize=auto;html=1;exitX=1;exitY=0.88;exitDx=3;exitDy=0;exitPerimeter=0;entryX=-0.048;entryY=0.879;entryDx=0;entryDy=0;entryPerimeter=0;" parent="1" source="12cuReVKj2bfx4aHEkNG-94" target="12cuReVKj2bfx4aHEkNG-95" edge="1">
                    <mxGeometry relative="1" as="geometry"/>
                </mxCell>
                <mxCell id="12cuReVKj2bfx4aHEkNG-126" value="dst_reg_ma" style="edgeLabel;html=1;align=center;verticalAlign=middle;resizable=0;points=[];" parent="12cuReVKj2bfx4aHEkNG-117" connectable="0" vertex="1">
                    <mxGeometry x="0.0625" y="-2" relative="1" as="geometry">
                        <mxPoint as="offset"/>
                    </mxGeometry>
                </mxCell>
                <mxCell id="12cuReVKj2bfx4aHEkNG-119" style="edgeStyle=orthogonalEdgeStyle;rounded=0;orthogonalLoop=1;jettySize=auto;html=1;exitX=0.5;exitY=0;exitDx=0;exitDy=0;entryX=0.023;entryY=0.876;entryDx=0;entryDy=0;entryPerimeter=0;" parent="1" source="12cuReVKj2bfx4aHEkNG-42" target="12cuReVKj2bfx4aHEkNG-22" edge="1">
                    <mxGeometry relative="1" as="geometry">
                        <Array as="points">
                            <mxPoint x="1973" y="413"/>
                            <mxPoint x="2030" y="413"/>
                            <mxPoint x="2030" y="810"/>
                            <mxPoint x="460" y="810"/>
                            <mxPoint x="460" y="539"/>
                        </Array>
                    </mxGeometry>
                </mxCell>
                <mxCell id="12cuReVKj2bfx4aHEkNG-134" style="edgeStyle=orthogonalEdgeStyle;rounded=0;orthogonalLoop=1;jettySize=auto;html=1;exitX=1.007;exitY=0.196;exitDx=0;exitDy=0;exitPerimeter=0;entryX=0.459;entryY=-0.002;entryDx=0;entryDy=0;entryPerimeter=0;" parent="1" source="12cuReVKj2bfx4aHEkNG-14" target="12cuReVKj2bfx4aHEkNG-66" edge="1">
                    <mxGeometry relative="1" as="geometry"/>
                </mxCell>
                <mxCell id="12cuReVKj2bfx4aHEkNG-141" value="alu_ctr_ex" style="edgeLabel;html=1;align=center;verticalAlign=middle;resizable=0;points=[];" parent="12cuReVKj2bfx4aHEkNG-134" connectable="0" vertex="1">
                    <mxGeometry x="0.5432" y="-1" relative="1" as="geometry">
                        <mxPoint as="offset"/>
                    </mxGeometry>
                </mxCell>
                <mxCell id="12cuReVKj2bfx4aHEkNG-135" style="edgeStyle=orthogonalEdgeStyle;rounded=0;orthogonalLoop=1;jettySize=auto;html=1;exitX=1.013;exitY=0.127;exitDx=0;exitDy=0;exitPerimeter=0;entryX=0;entryY=0.128;entryDx=0;entryDy=0;entryPerimeter=0;" parent="1" source="12cuReVKj2bfx4aHEkNG-14" target="12cuReVKj2bfx4aHEkNG-94" edge="1">
                    <mxGeometry relative="1" as="geometry">
                        <Array as="points">
                            <mxPoint x="1155" y="123"/>
                            <mxPoint x="1380" y="123"/>
                        </Array>
                    </mxGeometry>
                </mxCell>
                <mxCell id="12cuReVKj2bfx4aHEkNG-150" value="jump_flag_ex" style="edgeLabel;html=1;align=center;verticalAlign=middle;resizable=0;points=[];" parent="12cuReVKj2bfx4aHEkNG-135" connectable="0" vertex="1">
                    <mxGeometry x="0.0094" y="2" relative="1" as="geometry">
                        <mxPoint as="offset"/>
                    </mxGeometry>
                </mxCell>
                <mxCell id="12cuReVKj2bfx4aHEkNG-136" value="4" style="ellipse;whiteSpace=wrap;html=1;aspect=fixed;" parent="1" vertex="1">
                    <mxGeometry x="210" y="130" width="20" height="20" as="geometry"/>
                </mxCell>
                <mxCell id="12cuReVKj2bfx4aHEkNG-137" style="edgeStyle=orthogonalEdgeStyle;rounded=0;orthogonalLoop=1;jettySize=auto;html=1;exitX=1;exitY=0.5;exitDx=0;exitDy=0;entryX=0.215;entryY=0.254;entryDx=0;entryDy=0;entryPerimeter=0;" parent="1" source="12cuReVKj2bfx4aHEkNG-136" target="12cuReVKj2bfx4aHEkNG-8" edge="1">
                    <mxGeometry relative="1" as="geometry"/>
                </mxCell>
                <mxCell id="12cuReVKj2bfx4aHEkNG-143" value="" style="verticalLabelPosition=bottom;shadow=0;dashed=0;align=center;html=1;verticalAlign=top;shape=mxgraph.electrical.logic_gates.inverter_2;rotation=90;" parent="1" vertex="1">
                    <mxGeometry x="1580" y="210" width="40" height="30" as="geometry"/>
                </mxCell>
                <mxCell id="12cuReVKj2bfx4aHEkNG-144" style="edgeStyle=orthogonalEdgeStyle;rounded=0;orthogonalLoop=1;jettySize=auto;html=1;entryX=0.618;entryY=0.004;entryDx=0;entryDy=0;entryPerimeter=0;" parent="1" source="12cuReVKj2bfx4aHEkNG-143" target="12cuReVKj2bfx4aHEkNG-101" edge="1">
                    <mxGeometry relative="1" as="geometry"/>
                </mxCell>
                <mxCell id="12cuReVKj2bfx4aHEkNG-147" value="re" style="edgeLabel;html=1;align=center;verticalAlign=middle;resizable=0;points=[];" parent="12cuReVKj2bfx4aHEkNG-144" connectable="0" vertex="1">
                    <mxGeometry x="-0.193" y="-1" relative="1" as="geometry">
                        <mxPoint as="offset"/>
                    </mxGeometry>
                </mxCell>
                <mxCell id="12cuReVKj2bfx4aHEkNG-145" style="edgeStyle=orthogonalEdgeStyle;rounded=0;orthogonalLoop=1;jettySize=auto;html=1;exitX=1;exitY=0.16;exitDx=0;exitDy=0;exitPerimeter=0;entryX=0;entryY=0.5;entryDx=0;entryDy=0;entryPerimeter=0;" parent="1" source="12cuReVKj2bfx4aHEkNG-94" target="12cuReVKj2bfx4aHEkNG-143" edge="1">
                    <mxGeometry relative="1" as="geometry">
                        <Array as="points">
                            <mxPoint x="1508" y="147"/>
                            <mxPoint x="1600" y="147"/>
                        </Array>
                    </mxGeometry>
                </mxCell>
                <mxCell id="12cuReVKj2bfx4aHEkNG-155" value="" style="edgeStyle=orthogonalEdgeStyle;rounded=0;orthogonalLoop=1;jettySize=auto;html=1;exitX=0.989;exitY=0.608;exitDx=0;exitDy=0;exitPerimeter=0;entryX=-0.038;entryY=0.64;entryDx=0;entryDy=0;entryPerimeter=0;" parent="1" source="12cuReVKj2bfx4aHEkNG-94" target="12cuReVKj2bfx4aHEkNG-95" edge="1">
                    <mxGeometry relative="1" as="geometry">
                        <mxPoint x="1430" y="411" as="sourcePoint"/>
                        <mxPoint x="1815" y="496" as="targetPoint"/>
                        <Array as="points">
                            <mxPoint x="1431" y="474"/>
                            <mxPoint x="1475" y="474"/>
                            <mxPoint x="1475" y="550"/>
                            <mxPoint x="1730" y="550"/>
                            <mxPoint x="1730" y="497"/>
                        </Array>
                    </mxGeometry>
                </mxCell>
                <mxCell id="12cuReVKj2bfx4aHEkNG-156" value="data" style="edgeLabel;html=1;align=center;verticalAlign=middle;resizable=0;points=[];" parent="12cuReVKj2bfx4aHEkNG-155" connectable="0" vertex="1">
                    <mxGeometry x="-0.0349" relative="1" as="geometry">
                        <mxPoint as="offset"/>
                    </mxGeometry>
                </mxCell>
                <mxCell id="12cuReVKj2bfx4aHEkNG-101" value="data_mem" style="rounded=1;whiteSpace=wrap;html=1;fillColor=#ffe6cc;strokeColor=#d79b00;" parent="1" vertex="1">
                    <mxGeometry x="1520" y="360" width="130" height="173.5" as="geometry"/>
                </mxCell>
                <mxCell id="5" value="" style="group" vertex="1" connectable="0" parent="1">
                    <mxGeometry x="145" y="310" width="40" height="80" as="geometry"/>
                </mxCell>
                <mxCell id="12cuReVKj2bfx4aHEkNG-2" value="PC" style="rounded=0;whiteSpace=wrap;html=1;rotation=-90;labelBackgroundColor=none;" parent="5" vertex="1">
                    <mxGeometry x="-20" y="20" width="80" height="40" as="geometry"/>
                </mxCell>
                <mxCell id="4" value="" style="endArrow=none;html=1;entryX=0;entryY=0.25;entryDx=0;entryDy=0;exitX=-0.004;exitY=0.518;exitDx=0;exitDy=0;exitPerimeter=0;" edge="1" parent="5" source="12cuReVKj2bfx4aHEkNG-2" target="12cuReVKj2bfx4aHEkNG-2">
                    <mxGeometry width="50" height="50" relative="1" as="geometry">
                        <mxPoint x="-5" y="110" as="sourcePoint"/>
                        <mxPoint x="45" y="60" as="targetPoint"/>
                        <Array as="points">
                            <mxPoint x="15" y="70"/>
                        </Array>
                    </mxGeometry>
                </mxCell>
            </root>
        </mxGraphModel>
    </diagram>
</mxfile>